{
    "asset" : {
        "generator" : "Khronos glTF Blender I/O v1.1.45",
        "version" : "2.0"
    },
    "scene" : 0,
    "scenes" : [
        {
            "name" : "Scene",
            "nodes" : [
                0
            ]
        }
    ],
    "nodes" : [
        {
            "mesh" : 0,
            "name" : "Sharniropriemnik"
        }
    ],
    "meshes" : [
        {
            "name" : "Sharniropriemnik",
            "primitives" : [
                {
                    "attributes" : {
                        "POSITION" : 0,
                        "NORMAL" : 1
                    },
                    "indices" : 2
                }
            ]
        }
    ],
    "accessors" : [
        {
            "bufferView" : 0,
            "componentType" : 5126,
            "count" : 4774,
            "max" : [
                18.092100143432617,
                25,
                17.992990493774414
            ],
            "min" : [
                -18.092100143432617,
                -5.551115123125783e-17,
                -17.992990493774414
            ],
            "type" : "VEC3"
        },
        {
            "bufferView" : 1,
            "componentType" : 5126,
            "count" : 4774,
            "type" : "VEC3"
        },
        {
            "bufferView" : 2,
            "componentType" : 5123,
            "count" : 4938,
            "type" : "SCALAR"
        }
    ],
    "bufferViews" : [
        {
            "buffer" : 0,
            "byteLength" : 57288,
            "byteOffset" : 0
        },
        {
            "buffer" : 0,
            "byteLength" : 57288,
            "byteOffset" : 57288
        },
        {
            "buffer" : 0,
            "byteLength" : 9876,
            "byteOffset" : 114576
        }
    ],
    "buffers" : [
        {
            "byteLength" : 124452,
            "uri" : "data:application/octet-stream;base64,"
        }
    ]
}
