{
    "asset" : {
        "generator" : "Khronos glTF Blender I/O v1.1.45",
        "version" : "2.0"
    },
    "scene" : 0,
    "scenes" : [
        {
            "name" : "Scene",
            "nodes" : [
                0,
                1
            ]
        }
    ],
    "nodes" : [
        {
            "name" : "Camera",
            "rotation" : [
                0.483536034822464,
                0.33687159419059753,
                -0.20870360732078552,
                0.7804827094078064
            ],
            "translation" : [
                7.358891487121582,
                4.958309173583984,
                6.925790786743164
            ]
        },
        {
            "mesh" : 0,
            "name" : "Sharnir v sbore"
        }
    ],
    "meshes" : [
        {
            "name" : "Sharnir v sbore",
            "primitives" : [
                {
                    "attributes" : {
                        "POSITION" : 0,
                        "NORMAL" : 1
                    },
                    "indices" : 2
                }
            ]
        }
    ],
    "accessors" : [
        {
            "bufferView" : 0,
            "componentType" : 5126,
            "count" : 14676,
            "max" : [
                18.084579467773438,
                25,
                18.0400390625
            ],
            "min" : [
                -18.084579467773438,
                -29.99612045288086,
                -18.0400390625
            ],
            "type" : "VEC3"
        },
        {
            "bufferView" : 1,
            "componentType" : 5126,
            "count" : 14676,
            "type" : "VEC3"
        },
        {
            "bufferView" : 2,
            "componentType" : 5123,
            "count" : 14898,
            "type" : "SCALAR"
        }
    ],
    "bufferViews" : [
        {
            "buffer" : 0,
            "byteLength" : 176112,
            "byteOffset" : 0
        },
        {
            "buffer" : 0,
            "byteLength" : 176112,
            "byteOffset" : 176112
        },
        {
            "buffer" : 0,
            "byteLength" : 29796,
            "byteOffset" : 352224
        }
    ],
    "buffers" : [
        {
            "byteLength" : 382020,
            "uri" : "data:application/octet-stream;base64,"
        }
    ]
}
