{
    "asset" : {
        "generator" : "Khronos glTF Blender I/O v1.1.45",
        "version" : "2.0"
    },
    "scene" : 0,
    "scenes" : [
        {
            "name" : "Scene",
            "nodes" : [
                0
            ]
        }
    ],
    "nodes" : [
        {
            "mesh" : 0,
            "name" : "Sharnir"
        }
    ],
    "meshes" : [
        {
            "name" : "Sharnir",
            "primitives" : [
                {
                    "attributes" : {
                        "POSITION" : 0,
                        "NORMAL" : 1
                    },
                    "indices" : 2
                }
            ]
        }
    ],
    "accessors" : [
        {
            "bufferView" : 0,
            "componentType" : 5126,
            "count" : 9848,
            "max" : [
                14.961689949035645,
                13.647279739379883,
                14.9993896484375
            ],
            "min" : [
                -14.893759727478027,
                -29.99612045288086,
                -14.998970031738281
            ],
            "type" : "VEC3"
        },
        {
            "bufferView" : 1,
            "componentType" : 5126,
            "count" : 9848,
            "type" : "VEC3"
        },
        {
            "bufferView" : 2,
            "componentType" : 5123,
            "count" : 9960,
            "type" : "SCALAR"
        }
    ],
    "bufferViews" : [
        {
            "buffer" : 0,
            "byteLength" : 118176,
            "byteOffset" : 0
        },
        {
            "buffer" : 0,
            "byteLength" : 118176,
            "byteOffset" : 118176
        },
        {
            "buffer" : 0,
            "byteLength" : 19920,
            "byteOffset" : 236352
        }
    ],
    "buffers" : [
        {
            "byteLength" : 256272,
            "uri" : "data:application/octet-stream;base64,"
        }
    ]
}
